# xmcd CD database file
#
# Track frame offsets:
#	150
#	13154
#	25675
#	42293
#	55292
#	68805
#	83264
#	96125
#	112621
#
# Disc length: 1608 seconds
#
# Revision: 1
# Processed by: cddbd v1.5.1PL0 Copyright (c) Steve Scherf et al.
# Submitted via: CDex 1.51
#
DISCID=5e064609
DTITLE=Jim Young - Make A Joyful Noise
DYEAR=2005
DGENRE=Country
TTITLE0=Make A Joyful Noise
TTITLE1=One More River To Cross
TTITLE2=Hard Work, Prayer and Grace
TTITLE3=Jesus Won't Ever Walk Away
TTITLE4=I Am A Pilgrim
TTITLE5=Wayfaring Stranger
TTITLE6=I'm Just An Old Chunk Of Coal
TTITLE7=Diamond In My Crown
TTITLE8=Jordan
EXTD=YEAR: 2005
EXTT0=
EXTT1=
EXTT2=
EXTT3=
EXTT4=
EXTT5=
EXTT6=
EXTT7=
EXTT8=
PLAYORDER=
